<?xml version="1.0" standalone="no"?>
<!DOCTYPE svg PUBLIC "-//W3C//DTD SVG 20010904//EN"
 "http://www.w3.org/TR/2001/REC-SVG-20010904/DTD/svg10.dtd">
<svg version="1.0" xmlns="http://www.w3.org/2000/svg"
 width="674.000000pt" height="256.000000pt" viewBox="0 0 674.000000 256.000000"
 preserveAspectRatio="xMidYMid meet">

<g transform="translate(0.000000,256.000000) scale(0.100000,-0.100000)"
fill="#000000" stroke="none">
<path d="M3195 2080 l-180 -180 180 -180 c99 -99 184 -180 190 -180 5 0 91 81
190 181 l180 180 -184 180 c-101 98 -186 179 -190 179 -3 0 -87 -81 -186 -180z
m335 -325 l-145 -144 -148 142 -147 142 147 147 147 148 146 -145 145 -145
-145 -145z"/>
<path d="M3247 2034 c-4 -4 -7 -67 -7 -141 l0 -133 35 0 35 0 0 49 c0 33 5 51
14 54 21 8 26 -2 26 -55 l0 -49 33 3 c29 3 32 6 33 38 3 67 4 70 24 70 18 0
20 -7 20 -55 0 -54 0 -55 30 -55 l30 0 0 140 0 140 -30 0 c-30 0 -30 0 -30
-56 0 -52 -1 -55 -22 -52 -20 3 -23 9 -23 53 -1 49 -2 50 -30 50 -29 0 -30 -2
-33 -52 -3 -44 -6 -53 -22 -53 -16 0 -19 9 -22 53 -3 47 -5 52 -28 55 -14 2
-29 0 -33 -4z"/>
<path d="M6360 1120 c-13 -8 -12 -10 3 -10 13 0 17 -9 17 -39 l0 -39 -40 5
c-49 7 -77 -14 -86 -64 -16 -86 44 -156 101 -119 14 9 25 12 25 6 0 -5 14 -10
32 -10 25 0 29 3 20 12 -8 8 -12 54 -12 140 0 126 0 128 -22 128 -13 0 -30 -5
-38 -10z m-4 -108 c35 -22 27 -123 -10 -140 -17 -7 -27 -7 -35 1 -12 12 -15
104 -5 131 6 17 31 21 50 8z"/>
<path d="M5351 1110 c-18 -4 -38 -14 -42 -22 -16 -23 -6 -53 19 -56 29 -4 42
26 17 44 -16 12 -16 13 8 19 55 14 95 -43 66 -94 -19 -34 -63 -36 -67 -3 -2
15 -10 22 -26 22 -21 0 -21 -3 -18 -72 4 -60 2 -74 -14 -85 -16 -11 -11 -13
37 -13 41 1 50 3 37 11 -13 7 -18 23 -18 54 l0 45 43 0 c33 0 49 6 65 23 22
23 29 71 14 94 -7 10 -76 45 -84 42 -2 -1 -18 -5 -37 -9z"/>
<path d="M2188 1098 c17 -17 17 -248 0 -248 -6 0 -8 -3 -5 -6 10 -11 77 -13
77 -3 0 5 -4 9 -10 9 -5 0 -9 34 -9 78 2 188 3 182 -33 182 -25 0 -29 -3 -20
-12z"/>
<path d="M5923 1096 c14 -11 17 -30 17 -120 0 -64 -4 -106 -10 -106 -5 0 -10
-4 -10 -9 0 -11 131 -25 158 -17 11 4 23 14 26 22 9 23 -12 54 -35 54 -25 0
-36 -27 -20 -52 12 -19 10 -19 -21 -13 -18 4 -34 8 -35 9 -1 1 -5 52 -9 114
-6 98 -5 112 9 112 9 0 19 5 22 10 4 6 -16 10 -52 10 -50 -1 -56 -2 -40 -14z"/>
<path d="M410 1092 c-39 -10 -60 -27 -66 -55 -5 -25 -2 -35 19 -53 20 -17 23
-24 12 -28 -26 -10 -47 -54 -40 -84 16 -73 172 -68 163 5 -4 37 -35 54 -53 30
-18 -24 -9 -47 19 -48 l21 0 -22 -11 c-32 -16 -72 -2 -79 27 -9 36 0 52 43 78
l38 22 -32 3 c-25 2 -34 9 -39 27 -10 38 -1 60 26 63 19 3 22 1 13 -8 -17 -18
-5 -40 22 -40 27 0 39 24 25 50 -10 18 -45 29 -70 22z"/>
<path d="M592 1084 c-45 -19 -77 -89 -67 -150 9 -60 59 -114 106 -114 37 0 89
42 89 72 0 28 -13 21 -30 -15 -17 -37 -53 -47 -85 -23 -17 12 -21 28 -23 99
-4 76 -2 87 17 106 22 22 56 28 66 11 3 -5 1 -10 -5 -10 -6 0 -10 -10 -8 -22
4 -28 36 -31 52 -6 8 14 6 22 -9 37 -27 27 -64 32 -103 15z"/>
<path d="M802 1085 c-28 -12 -33 -19 -30 -42 2 -22 8 -28 28 -28 18 0 26 6 28
23 2 15 -2 22 -13 22 -9 0 -13 5 -10 10 3 6 19 10 35 10 69 0 80 -102 12 -108
-24 -2 -32 1 -32 12 0 10 -9 16 -24 16 -23 0 -23 -2 -18 -72 4 -61 2 -73 -14
-85 -16 -11 -12 -13 34 -13 29 0 52 5 52 10 0 6 -7 10 -15 10 -12 0 -15 13
-15 55 0 46 3 55 18 55 35 0 56 -26 61 -76 5 -42 10 -50 29 -52 26 -4 52 13
52 34 0 21 -20 17 -21 -3 -1 -10 -5 5 -11 32 -5 28 -15 55 -23 61 -13 9 -12
14 5 29 37 33 16 90 -39 105 -45 12 -49 12 -89 -5z"/>
<path d="M1158 1089 c-31 -12 -68 -80 -68 -127 0 -98 89 -171 155 -128 31 20
51 64 35 80 -7 7 -10 4 -10 -10 0 -24 -39 -64 -63 -64 -9 0 -26 9 -37 20 -17
17 -20 33 -20 103 0 91 13 117 58 117 25 0 26 -4 12 -30 -12 -22 11 -46 35
-36 23 8 18 53 -7 70 -25 18 -50 19 -90 5z"/>
<path d="M1754 1086 c-8 -21 3 -36 27 -36 15 0 20 6 17 22 -4 27 -35 37 -44
14z"/>
<path d="M2605 1076 c-22 -22 -45 -81 -45 -118 0 -33 32 -97 55 -112 38 -25
88 -20 119 10 26 26 35 64 16 64 -5 0 -10 -8 -10 -18 0 -52 -83 -69 -107 -22
-15 29 -17 138 -4 173 11 28 53 43 79 28 16 -10 16 -10 0 -11 -12 0 -18 -8
-18 -25 0 -20 5 -25 24 -25 16 0 27 7 31 21 18 56 -91 84 -140 35z"/>
<path d="M5740 1064 c-8 -11 -24 -24 -35 -29 -18 -7 -18 -9 -2 -12 14 -4 17
-17 17 -88 0 -74 2 -84 20 -90 23 -7 55 8 64 30 7 20 -3 19 -26 -2 -17 -15
-18 -13 -18 65 0 75 2 82 20 82 11 0 20 5 20 10 0 6 -9 10 -19 10 -13 0 -21 8
-23 23 l-3 22 -15 -21z"/>
<path d="M6162 1060 c-7 -11 -19 -20 -27 -20 -18 0 -20 -17 -4 -22 7 -2 12
-33 14 -77 2 -80 18 -108 54 -96 22 7 49 45 32 45 -5 0 -13 -4 -16 -10 -16
-26 -25 -3 -25 64 0 69 2 75 23 79 l22 4 -22 8 c-13 4 -23 16 -23 26 0 25 -12
24 -28 -1z"/>
<path d="M1876 1035 c-17 -17 -24 -31 -17 -33 6 -2 11 -28 11 -65 0 -89 7
-107 39 -107 30 0 51 16 51 39 0 12 -3 11 -18 -2 -10 -10 -22 -17 -25 -17 -4
0 -7 34 -7 75 0 68 2 75 19 75 11 0 23 5 26 10 3 6 -5 10 -19 10 -18 0 -26 6
-28 23 -3 22 -3 21 -32 -8z"/>
<path d="M3390 1054 c0 -9 -9 -18 -20 -21 -20 -5 -28 -23 -10 -23 6 0 10 -33
10 -78 0 -80 9 -102 40 -102 20 0 56 37 46 47 -4 5 -12 0 -17 -10 -18 -32 -29
-7 -29 69 0 67 2 74 20 74 11 0 20 5 20 11 0 6 -9 9 -20 6 -16 -4 -20 0 -20
19 0 13 -4 24 -10 24 -5 0 -10 -7 -10 -16z"/>
<path d="M3744 1029 c-71 -26 -72 -153 -1 -187 40 -19 97 6 97 43 0 9 -9 5
-25 -10 -26 -27 -33 -29 -54 -16 -19 12 -30 88 -18 123 10 30 43 46 60 29 8
-8 8 -11 -1 -11 -15 0 -16 -36 -2 -45 15 -9 40 13 40 35 0 34 -54 56 -96 39z"/>
<path d="M4177 1023 c-11 -11 -17 -13 -17 -5 0 7 -13 12 -30 12 -16 0 -30 -4
-30 -10 0 -5 5 -10 10 -10 6 0 10 -32 10 -75 0 -43 -4 -75 -10 -75 -5 0 -10
-4 -10 -10 0 -5 18 -10 40 -10 22 0 40 5 40 10 0 6 -5 10 -11 10 -17 0 -5 128
13 147 13 12 15 11 14 -9 -1 -33 38 -32 42 1 6 39 -31 53 -61 24z"/>
<path d="M4336 1025 c-9 -9 -16 -12 -16 -6 0 6 -17 11 -37 11 -32 -1 -35 -3
-22 -13 19 -14 27 -157 10 -157 -6 0 -11 -4 -11 -10 0 -5 18 -10 40 -10 22 0
40 5 40 10 0 6 -4 10 -10 10 -6 0 -10 26 -10 59 0 43 5 65 19 82 l19 24 -5
-28 c-4 -23 -2 -27 16 -27 26 0 38 26 24 49 -14 22 -38 25 -57 6z"/>
<path d="M4462 1030 c-51 -21 -65 -127 -21 -171 41 -41 129 -15 129 37 0 16
-4 14 -18 -8 -28 -47 -92 -33 -92 19 0 20 5 23 39 23 45 0 71 20 71 55 0 43
-55 66 -108 45z m66 -42 c3 -22 -2 -30 -23 -38 -38 -14 -45 -13 -45 11 0 59
62 83 68 27z"/>
<path d="M4691 1031 c-7 -5 -32 -7 -55 -5 -22 2 -35 1 -28 -2 15 -7 17 -164 1
-164 -5 0 -7 -5 -4 -10 4 -6 22 -9 41 -8 34 2 43 11 24 23 -16 10 0 117 21
139 15 16 21 17 33 6 20 -16 23 -146 4 -153 -7 -3 -2 -6 12 -7 14 -1 33 -3 43
-5 9 -2 17 1 17 6 0 5 -4 9 -10 9 -6 0 -10 31 -10 74 0 66 -3 77 -22 90 -25
18 -46 20 -67 7z"/>
<path d="M4873 1028 c-40 -19 -55 -96 -28 -147 16 -31 33 -41 73 -41 31 0 73
36 65 57 -4 11 -8 8 -17 -9 -13 -26 -50 -35 -72 -18 -17 15 -19 121 -2 138 7
7 26 12 43 12 25 -1 27 -2 13 -11 -10 -5 -18 -19 -18 -30 0 -31 44 -21 48 10
7 44 -51 65 -105 39z"/>
<path d="M5096 1025 c-8 -21 3 -45 20 -45 8 0 17 7 21 17 5 14 8 13 15 -6 5
-15 3 -34 -8 -57 -33 -68 -84 -30 -84 62 0 33 -2 34 -37 34 -31 -1 -35 -3 -20
-11 11 -7 17 -22 17 -48 0 -24 9 -52 25 -76 20 -28 23 -40 15 -50 -17 -20 -8
-66 15 -81 23 -15 42 -7 47 21 2 14 -3 21 -19 23 -17 2 -23 -2 -23 -15 0 -14
-2 -15 -9 -4 -14 21 -3 42 51 92 41 38 48 51 48 83 0 20 -5 46 -10 57 -13 23
-55 25 -64 4z"/>
<path d="M5490 1029 c0 -5 4 -9 9 -9 4 0 11 -25 15 -56 11 -96 48 -140 96
-114 41 22 69 114 51 163 -9 23 -16 28 -39 25 -19 -2 -28 -9 -30 -25 -4 -26
24 -32 47 -10 20 18 8 -75 -13 -108 -34 -51 -62 -17 -70 85 -4 54 -5 55 -35
57 -17 1 -31 -3 -31 -8z"/>
<path d="M1362 1023 c-31 -6 -45 -35 -28 -58 8 -11 20 -16 30 -12 17 7 23 37
6 37 -5 0 -10 5 -10 10 0 16 37 12 54 -6 30 -29 20 -51 -26 -58 -50 -8 -78
-30 -78 -61 0 -42 54 -64 100 -41 17 8 30 11 30 6 0 -4 7 -10 15 -14 19 -7 45
20 45 47 -1 21 -1 21 -15 -3 -13 -24 -14 -21 -15 41 0 91 -33 125 -108 112z
m68 -123 c0 -26 -35 -61 -55 -54 -18 7 -20 60 -2 67 31 13 57 7 57 -13z"/>
<path d="M1602 1014 c-12 -8 -22 -10 -22 -5 0 6 -13 11 -30 11 -16 0 -30 -4
-30 -10 0 -5 5 -10 10 -10 15 0 13 -223 -2 -238 -9 -9 -2 -12 33 -11 24 0 38
3 32 6 -7 2 -13 22 -13 44 0 37 1 38 24 29 56 -21 96 22 96 105 0 35 -6 52
-25 70 -28 29 -42 31 -73 9z m55 -77 c6 -51 -9 -87 -37 -87 -43 0 -57 103 -19
141 19 19 23 19 36 6 8 -8 17 -35 20 -60z"/>
<path d="M2012 1014 c-27 -19 -26 -57 2 -62 27 -6 38 19 18 41 -16 18 -15 18
18 15 31 -3 35 -7 38 -34 3 -30 1 -32 -38 -37 -22 -3 -47 -11 -55 -17 -18 -15
-20 -61 -3 -78 15 -15 80 -16 95 -1 8 8 13 8 17 0 13 -21 46 -12 56 15 12 32
12 34 0 34 -5 0 -10 -7 -10 -17 0 -41 -10 0 -15 58 -3 50 -9 68 -26 82 -27 21
-67 22 -97 1z m78 -118 c0 -28 -22 -49 -47 -44 -41 8 -21 68 23 68 19 0 24 -5
24 -24z"/>
<path d="M2325 1007 c-38 -32 -22 -68 40 -96 33 -15 46 -26 43 -38 -4 -20 -45
-33 -73 -22 -18 7 -18 8 -2 8 13 1 17 7 15 24 -4 26 -26 29 -42 5 -18 -30 4
-53 56 -56 54 -4 78 15 78 59 0 24 -7 32 -51 54 -57 29 -64 58 -16 63 26 3 27
2 15 -18 -11 -17 -11 -22 1 -29 33 -21 62 21 35 50 -23 26 -67 24 -99 -4z"/>
<path d="M2806 1021 c-14 -5 -16 -10 -8 -15 17 -10 16 -153 0 -159 -7 -3 10
-5 37 -5 28 0 42 2 31 5 -16 4 -18 13 -14 69 3 42 10 70 20 81 16 15 17 15 11
-5 -3 -15 0 -24 11 -28 21 -8 47 13 39 32 -3 8 -1 14 4 14 5 0 14 -26 21 -59
7 -33 21 -66 32 -76 15 -13 17 -21 9 -31 -14 -17 -15 -72 -2 -85 18 -18 58 -6
61 19 3 17 -2 22 -17 22 -13 0 -21 -7 -22 -17 0 -14 -3 -13 -12 5 -10 21 -6
28 41 72 56 52 69 84 55 133 -7 27 -14 32 -38 32 -21 0 -31 -5 -33 -19 -6 -27
19 -38 40 -19 17 15 18 14 18 -20 0 -23 -8 -45 -22 -62 -34 -39 -58 -17 -67
61 l-6 59 -60 2 c-33 0 -66 -4 -72 -9 -9 -7 -13 -7 -13 1 0 12 -16 13 -44 2z"/>
<path d="M3145 1020 c-11 -5 -14 -9 -7 -9 9 -1 12 -32 12 -120 0 -106 -2 -120
-17 -123 -10 -3 3 -6 30 -9 26 -2 47 -1 47 3 0 5 -4 8 -10 8 -5 0 -10 18 -10
40 0 37 2 40 19 30 57 -30 101 12 101 96 0 41 -5 59 -20 74 -25 25 -75 26 -89
3 -10 -17 -10 -17 -11 0 0 18 -13 21 -45 7z m115 -29 c23 -44 6 -141 -25 -141
-26 0 -45 31 -45 73 0 69 45 113 70 68z"/>
<path d="M3501 1004 c-14 -18 -21 -41 -21 -71 0 -36 6 -50 30 -75 27 -26 36
-30 68 -24 50 8 72 38 72 102 0 65 -27 94 -87 94 -33 0 -46 -6 -62 -26z m91
-1 c13 -11 18 -30 18 -65 0 -61 -14 -88 -44 -88 -42 0 -62 102 -30 148 18 26
31 28 56 5z"/>
<path d="M3873 1016 c13 -10 17 -28 17 -84 0 -64 2 -73 24 -87 26 -17 76 -11
76 8 0 7 4 7 12 -1 14 -14 68 -16 68 -2 0 6 -7 10 -15 10 -12 0 -15 16 -15 85
l0 85 -30 0 c-16 0 -30 -4 -30 -10 0 -5 5 -10 10 -10 6 0 10 -27 10 -60 0 -47
-4 -64 -21 -81 -34 -34 -49 -10 -49 82 l0 79 -37 0 c-34 -1 -36 -2 -20 -14z"/>
<path d="M1743 1006 c13 -10 17 -28 17 -85 0 -41 -4 -71 -10 -71 -5 0 -10 -4
-10 -10 0 -5 18 -10 40 -10 22 0 40 5 40 10 0 6 -4 10 -10 10 -6 0 -10 35 -10
85 l0 85 -37 0 c-34 -1 -36 -2 -20 -14z"/>
</g>
</svg>
