<?xml version="1.0" standalone="no"?>
<!DOCTYPE svg PUBLIC "-//W3C//DTD SVG 20010904//EN"
 "http://www.w3.org/TR/2001/REC-SVG-20010904/DTD/svg10.dtd">
<svg version="1.0" xmlns="http://www.w3.org/2000/svg"
 width="637.000000pt" height="176.000000pt" viewBox="0 0 637.000000 176.000000"
 preserveAspectRatio="xMidYMid meet">

<g transform="translate(0.000000,176.000000) scale(0.100000,-0.100000)"
fill="#000000" stroke="none">
<path d="M3005 1540 l-180 -180 180 -180 c99 -99 184 -180 190 -180 5 0 91 81
190 180 l179 181 -184 179 c-101 99 -186 180 -189 180 -4 0 -87 -81 -186 -180z
m335 -325 l-145 -145 -147 143 -148 143 147 146 147 147 146 -144 145 -145
-145 -145z"/>
<path d="M3057 1494 c-4 -4 -7 -67 -7 -141 l0 -133 35 0 35 0 0 54 c0 46 3 54
18 52 13 -2 18 -14 20 -55 3 -52 3 -52 35 -49 29 3 32 6 33 38 3 62 4 66 24
67 18 2 20 -4 20 -53 l0 -55 33 3 c17 2 31 6 30 11 -2 4 -3 66 -3 137 l0 130
-30 0 c-30 0 -30 0 -30 -56 0 -52 -1 -55 -22 -52 -20 3 -23 9 -23 53 -1 49 -2
50 -30 50 -29 0 -30 -2 -33 -52 -3 -44 -6 -53 -22 -53 -16 0 -19 9 -22 53 -3
47 -5 52 -28 55 -14 2 -29 0 -33 -4z"/>
<path d="M6165 580 c-3 -5 1 -10 9 -10 12 0 16 -10 16 -39 l0 -39 -44 5 c-42
5 -46 4 -65 -28 -34 -56 -22 -135 25 -160 22 -12 30 -11 55 3 16 10 29 13 29
8 0 -6 14 -10 32 -10 25 0 29 3 20 12 -8 8 -12 54 -12 140 l0 128 -29 0 c-17
0 -33 -4 -36 -10z m5 -110 c10 -6 15 -26 15 -61 0 -42 -4 -54 -25 -71 -23 -19
-25 -19 -37 -2 -13 18 -18 100 -7 128 7 18 31 21 54 6z"/>
<path d="M2015 570 c-20 -3 -26 -8 -17 -13 8 -6 12 -43 12 -128 0 -88 -3 -119
-12 -119 -8 0 -7 -4 2 -10 9 -5 28 -7 43 -6 30 4 50 16 25 16 -12 0 -15 21
-16 131 -1 73 -3 133 -4 134 -2 1 -16 -1 -33 -5z"/>
<path d="M5153 569 c-50 -14 -59 -79 -12 -79 27 0 37 30 14 46 -16 12 -16 13
8 19 14 4 35 2 46 -4 48 -26 32 -113 -22 -119 -23 -3 -27 0 -27 22 0 20 -5 26
-22 26 -22 0 -23 -3 -20 -72 3 -60 1 -74 -14 -85 -15 -11 -11 -13 37 -13 41 1
50 3 37 11 -13 7 -18 23 -18 54 l0 45 44 0 c36 0 48 5 65 26 21 27 27 69 13
91 -8 12 -75 44 -89 42 -4 0 -23 -5 -40 -10z"/>
<path d="M5720 560 c0 -5 7 -10 15 -10 12 0 15 -19 15 -110 0 -93 -3 -110 -17
-119 -15 -9 -12 -10 17 -11 19 0 51 -4 70 -8 51 -11 80 -4 92 23 8 18 8 28 -2
40 -30 36 -76 3 -51 -37 12 -19 10 -19 -21 -13 -18 4 -34 8 -36 10 -1 1 -5 52
-7 113 -5 94 -3 112 9 112 8 0 18 5 21 10 4 6 -15 10 -49 10 -31 0 -56 -4 -56
-10z"/>
<path d="M213 553 c-27 -5 -63 -48 -63 -74 0 -10 10 -26 23 -35 l22 -17 -27
-28 c-34 -34 -35 -62 -3 -94 46 -47 150 -24 143 32 -4 37 -35 54 -53 30 -18
-24 -9 -47 19 -48 l21 0 -22 -11 c-32 -16 -72 -2 -79 27 -9 36 0 52 43 78 l38
22 -29 5 c-16 3 -33 12 -39 21 -14 23 -1 66 23 72 20 5 28 -7 10 -18 -5 -3 -7
-12 -3 -20 7 -20 49 -19 57 1 7 17 -9 54 -24 54 -4 0 -14 2 -22 4 -7 2 -23 1
-35 -1z"/>
<path d="M396 543 c-27 -14 -49 -49 -60 -96 -18 -76 40 -167 107 -167 27 0 43
7 62 27 25 28 34 63 15 63 -5 0 -10 -8 -10 -18 0 -25 -31 -52 -58 -52 -45 0
-62 33 -62 120 0 67 3 83 20 100 21 21 55 26 65 10 3 -5 1 -10 -4 -10 -17 0
-13 -40 5 -47 22 -8 47 20 40 45 -11 34 -77 48 -120 25z"/>
<path d="M623 553 c-29 -6 -45 -27 -41 -55 4 -32 52 -33 56 0 2 16 -2 22 -15
22 -15 0 -16 2 -3 10 25 16 58 11 74 -12 20 -29 20 -52 0 -72 -20 -21 -64 -21
-64 -1 0 9 -9 15 -23 15 -23 0 -24 -2 -19 -72 4 -61 2 -73 -14 -85 -16 -11
-11 -13 34 -13 29 0 52 5 52 10 0 6 -7 10 -16 10 -22 0 -16 103 6 108 30 5 54
-24 59 -74 5 -42 10 -50 29 -52 13 -2 30 2 38 8 16 14 19 40 4 40 -5 0 -10 -8
-10 -17 0 -32 -12 -4 -16 39 -3 23 -11 47 -18 52 -11 8 -10 15 6 37 18 24 19
32 9 58 -18 41 -63 57 -128 44z"/>
<path d="M974 551 c-51 -22 -83 -97 -70 -166 15 -78 96 -127 151 -91 31 20 51
64 35 80 -7 7 -10 4 -10 -10 0 -24 -39 -64 -63 -64 -9 0 -26 9 -37 20 -17 17
-20 33 -20 103 0 91 13 117 58 117 25 0 26 -4 12 -30 -12 -22 11 -46 35 -36
16 6 20 43 7 64 -11 16 -71 24 -98 13z"/>
<path d="M1564 546 c-8 -21 3 -36 27 -36 15 0 20 6 17 22 -4 27 -35 37 -44 14z"/>
<path d="M2415 536 c-22 -22 -45 -81 -45 -119 0 -28 26 -82 51 -106 22 -21 70
-28 104 -15 27 11 58 84 35 84 -5 0 -10 -8 -10 -18 0 -52 -83 -69 -107 -22
-15 29 -17 138 -4 173 11 28 53 43 79 28 16 -10 16 -10 0 -11 -12 0 -18 -8
-18 -25 0 -20 5 -25 24 -25 26 0 39 21 30 45 -16 41 -102 48 -139 11z"/>
<path d="M5545 521 c-3 -10 -16 -22 -28 -26 -19 -6 -19 -8 -4 -12 14 -4 17
-17 17 -89 0 -82 0 -84 27 -90 20 -6 31 -2 45 16 10 13 16 26 12 29 -3 3 -11
-2 -18 -12 -7 -9 -16 -17 -20 -17 -3 0 -6 36 -6 80 0 75 1 80 22 80 12 0 18 3
14 8 -4 4 -13 7 -19 7 -7 0 -13 10 -15 23 -4 27 -18 29 -27 3z"/>
<path d="M5972 520 c-7 -11 -19 -20 -27 -20 -17 0 -20 -17 -4 -22 5 -2 11 -35
12 -75 4 -98 32 -129 77 -81 20 22 19 41 -2 20 -23 -23 -28 -11 -28 63 0 68 2
75 20 75 11 0 20 5 20 10 0 6 -9 10 -20 10 -13 0 -20 7 -20 20 0 11 -3 20 -8
20 -4 0 -13 -9 -20 -20z"/>
<path d="M1686 495 c-17 -17 -24 -31 -17 -33 6 -2 11 -28 11 -65 0 -89 7 -107
39 -107 30 0 51 16 51 39 0 12 -3 11 -18 -2 -10 -10 -22 -17 -25 -17 -11 0 -8
150 3 151 6 1 14 2 19 3 23 3 22 16 -2 16 -19 0 -26 6 -29 23 -3 22 -3 21 -32
-8z"/>
<path d="M3200 514 c0 -9 -9 -18 -20 -21 -20 -5 -28 -23 -10 -23 6 0 10 -33
10 -78 0 -80 9 -102 40 -102 20 0 56 37 46 47 -4 5 -12 0 -17 -10 -18 -32 -29
-7 -29 69 0 67 2 74 20 74 11 0 20 5 20 11 0 6 -9 9 -20 6 -16 -4 -20 0 -20
19 0 13 -4 24 -10 24 -5 0 -10 -7 -10 -16z"/>
<path d="M3563 493 c-77 -15 -84 -155 -10 -191 41 -20 97 6 97 45 0 12 -7 9
-25 -11 -28 -30 -38 -32 -59 -10 -17 16 -22 109 -8 130 11 17 49 26 57 14 3
-5 1 -10 -4 -10 -14 0 -14 -37 -1 -45 15 -9 40 13 40 35 0 31 -42 51 -87 43z"/>
<path d="M3987 483 c-11 -11 -17 -13 -17 -5 0 7 -13 12 -30 12 -16 0 -30 -4
-30 -10 0 -5 5 -10 10 -10 6 0 10 -32 10 -75 0 -43 -4 -75 -10 -75 -5 0 -10
-4 -10 -10 0 -5 18 -10 40 -10 22 0 40 5 40 10 0 6 -5 10 -11 10 -17 0 -7 127
12 146 14 13 16 13 15 -8 -1 -33 38 -32 42 1 6 39 -31 53 -61 24z"/>
<path d="M4146 485 c-9 -9 -16 -12 -16 -6 0 6 -17 11 -37 11 -32 -1 -35 -3
-22 -13 19 -14 27 -157 10 -157 -6 0 -11 -4 -11 -10 0 -5 18 -10 40 -10 22 0
40 5 40 10 0 6 -4 10 -10 10 -6 0 -10 26 -10 59 0 43 5 65 19 82 l19 24 -5
-28 c-4 -23 -2 -27 16 -27 26 0 38 26 24 49 -14 22 -38 25 -57 6z"/>
<path d="M4270 487 c-35 -18 -55 -80 -40 -129 12 -43 34 -58 83 -58 37 0 67
25 67 56 0 16 -4 14 -18 -8 -28 -46 -92 -33 -92 18 0 18 7 22 46 27 26 2 50
11 55 18 15 25 9 58 -13 73 -27 19 -54 20 -88 3z m68 -39 c3 -22 -2 -30 -23
-38 -38 -14 -45 -13 -45 11 0 59 62 83 68 27z"/>
<path d="M4496 485 c-9 -9 -17 -11 -21 -5 -3 5 -21 10 -38 9 -18 0 -26 -3 -19
-6 15 -6 17 -163 1 -163 -5 0 -7 -5 -4 -10 4 -6 22 -9 41 -8 34 2 43 11 24 23
-16 10 0 117 21 139 15 16 21 17 33 6 20 -16 23 -150 4 -150 -8 0 -5 -5 4 -11
18 -10 62 -8 74 4 4 4 0 7 -9 7 -14 0 -17 12 -17 74 0 66 -3 77 -22 90 -28 20
-52 20 -72 1z"/>
<path d="M4677 480 c-45 -35 -48 -119 -7 -160 28 -28 83 -26 110 2 11 12 20
25 20 30 0 15 -15 8 -28 -12 -14 -22 -51 -27 -70 -8 -16 16 -16 120 0 136 7 7
26 12 43 12 25 -1 27 -2 13 -11 -10 -5 -18 -19 -18 -30 0 -31 44 -21 48 10 7
49 -63 68 -111 31z"/>
<path d="M4825 490 c-24 -4 -26 -7 -12 -12 12 -5 17 -19 17 -46 0 -26 9 -52
26 -77 18 -27 22 -41 15 -48 -15 -15 -14 -60 1 -75 27 -27 81 -2 62 29 -10 16
-44 10 -44 -8 0 -15 -2 -15 -9 -4 -14 21 -3 42 51 92 41 38 48 51 48 83 0 47
-15 76 -39 76 -24 0 -43 -23 -35 -44 8 -21 33 -21 41 1 5 14 8 13 15 -6 5 -15
3 -34 -8 -57 -32 -68 -84 -30 -84 62 0 39 -5 42 -45 34z"/>
<path d="M5300 489 c0 -5 4 -9 8 -9 5 0 13 -33 20 -72 11 -76 33 -108 72 -108
41 0 88 102 75 161 -10 46 -75 54 -75 8 0 -22 29 -26 49 -6 20 18 8 -75 -13
-108 -34 -52 -64 -15 -69 85 -3 54 -4 55 -35 57 -18 1 -32 -3 -32 -8z"/>
<path d="M1172 483 c-31 -6 -45 -35 -28 -58 8 -11 20 -16 30 -12 17 7 23 37 6
37 -5 0 -10 5 -10 10 0 12 30 13 47 2 6 -4 14 -19 18 -33 6 -25 4 -27 -37 -33
-81 -13 -107 -72 -44 -102 30 -15 37 -15 63 -2 24 12 31 12 42 1 19 -20 51 1
51 35 l-1 27 -14 -25 c-13 -24 -14 -21 -15 41 0 92 -34 127 -108 112z m68
-127 c0 -28 -35 -57 -56 -49 -17 6 -18 60 -1 66 6 3 22 6 35 6 17 1 22 -5 22
-23z"/>
<path d="M1412 474 c-12 -8 -22 -10 -22 -5 0 6 -17 11 -37 11 -34 -1 -36 -2
-20 -14 14 -11 17 -30 17 -123 0 -71 -4 -113 -12 -121 -9 -9 -2 -12 33 -11 24
0 38 3 32 6 -7 2 -13 22 -13 44 0 37 1 38 25 29 33 -12 67 1 84 33 21 39 10
126 -19 149 -27 22 -39 22 -68 2z m55 -77 c8 -69 -28 -112 -65 -75 -21 21 -15
105 9 129 19 19 23 19 36 6 8 -8 17 -35 20 -60z"/>
<path d="M1828 483 c-19 -5 -34 -45 -23 -62 3 -6 15 -11 26 -11 22 0 26 29 7
48 -9 9 -5 12 19 12 31 0 43 -14 43 -50 0 -13 -10 -19 -40 -23 -23 -3 -47 -11
-55 -17 -18 -15 -20 -61 -3 -78 15 -15 80 -16 95 -1 8 8 13 8 17 0 13 -21 46
-12 56 15 12 32 12 34 0 34 -5 0 -10 -7 -10 -17 0 -9 -3 -14 -6 -10 -3 3 -8
34 -9 69 -3 50 -8 66 -25 80 -21 17 -54 21 -92 11z m61 -159 c-16 -19 -48 -18
-56 2 -8 23 9 47 38 54 20 5 25 2 27 -18 2 -13 -2 -30 -9 -38z"/>
<path d="M2150 484 c-23 -7 -40 -39 -33 -63 3 -13 25 -32 55 -47 33 -17 48
-30 46 -41 -4 -20 -50 -34 -69 -22 -11 7 -11 9 -1 9 8 0 12 9 10 23 -4 26 -26
29 -42 5 -18 -30 4 -53 56 -56 54 -4 78 15 78 59 0 24 -7 32 -51 54 -57 29
-64 58 -16 63 26 3 27 2 15 -18 -11 -17 -11 -22 1 -29 33 -21 62 21 35 50 -16
18 -48 22 -84 13z"/>
<path d="M2610 481 c-21 -6 -22 -8 -7 -14 14 -5 17 -19 17 -81 0 -50 -4 -76
-12 -79 -7 -3 10 -5 37 -5 28 0 42 2 33 5 -14 3 -18 15 -18 52 0 51 16 111 30
111 4 0 6 -9 3 -20 -3 -13 1 -22 11 -26 20 -8 49 15 42 33 -3 7 -1 13 3 13 5
0 12 -23 16 -51 4 -30 16 -61 29 -76 21 -24 22 -29 9 -54 -20 -41 -2 -81 35
-77 34 4 47 48 13 48 -13 0 -21 -7 -22 -17 0 -14 -3 -13 -12 5 -10 21 -6 28
41 72 56 52 69 84 55 133 -7 27 -14 32 -38 32 -21 0 -31 -5 -33 -19 -6 -27 19
-38 40 -19 17 15 18 14 18 -19 0 -48 -34 -92 -60 -78 -18 10 -29 42 -33 105
-2 29 -4 30 -57 31 -30 1 -63 -2 -72 -7 -10 -6 -19 -5 -23 1 -7 11 -9 11 -45
1z"/>
<path d="M2944 478 c-3 -5 0 -8 5 -8 17 0 15 -237 -1 -243 -7 -3 7 -5 32 -5
25 0 39 2 33 5 -8 3 -13 22 -13 46 0 32 3 38 12 29 21 -21 65 -14 87 14 29 37
29 126 1 154 -22 22 -51 26 -81 10 -13 -7 -19 -7 -19 0 0 11 -49 10 -56 -2z
m126 -27 c14 -28 13 -104 -3 -125 -43 -59 -94 62 -51 122 19 27 40 28 54 3z"/>
<path d="M3311 464 c-14 -18 -21 -41 -21 -71 0 -36 6 -50 30 -75 27 -26 36
-30 68 -24 50 8 72 38 72 102 0 65 -27 94 -87 94 -33 0 -46 -6 -62 -26z m91
-1 c13 -11 18 -30 18 -65 0 -61 -14 -88 -45 -88 -18 0 -26 8 -35 36 -19 56 1
134 33 134 6 0 19 -7 29 -17z"/>
<path d="M3683 472 c12 -13 17 -37 17 -85 0 -61 2 -68 26 -84 25 -16 28 -16
55 -1 16 10 31 13 34 7 8 -12 65 -12 65 1 0 5 -6 9 -12 7 -10 -1 -14 22 -16
86 l-3 87 -29 0 c-17 0 -30 -4 -30 -10 0 -5 5 -10 10 -10 6 0 10 -27 10 -60 0
-47 -4 -64 -21 -81 -34 -34 -49 -10 -49 82 l0 79 -37 0 c-34 0 -35 -1 -20 -18z"/>
<path d="M1553 466 c13 -10 17 -28 17 -85 0 -41 -4 -71 -10 -71 -5 0 -10 -4
-10 -10 0 -5 18 -10 40 -10 22 0 40 5 40 10 0 6 -4 10 -10 10 -6 0 -10 35 -10
85 l0 85 -37 0 c-34 -1 -36 -2 -20 -14z"/>
</g>
</svg>
